HIERARCHY
ROOT Hips
{
  OFFSET 40.9192 92.6879 18.85
  CHANNELS 6 Xposition Yposition Zposition Zrotation Xrotation Yrotation
  JOINT LeftUpLeg
  {
    OFFSET 8.64259 1.95398 -2.38835
    CHANNELS 3 Zrotation Xrotation Yrotation
    JOINT LeftLeg
    {
      OFFSET 43.7702 0 0
      CHANNELS 3 Zrotation Xrotation Yrotation
      JOINT LeftFoot
      {
        OFFSET 40.6238 0 0
        CHANNELS 3 Zrotation Xrotation Yrotation
        JOINT LeftToeBase
        {
          OFFSET 12.7242 0 0
          CHANNELS 3 Zrotation Xrotation Yrotation
          End Site
          {
            OFFSET 0 0 0
          }
        }
      }
    }
  }
  JOINT RightUpLeg
  {
    OFFSET -8.2249 1.95398 -2.59336
    CHANNELS 3 Zrotation Xrotation Yrotation
    JOINT RightLeg
    {
      OFFSET 43.5653 0 0
      CHANNELS 3 Zrotation Xrotation Yrotation
      JOINT RightFoot
      {
        OFFSET 40.6238 0 0
        CHANNELS 3 Zrotation Xrotation Yrotation
        JOINT RightToeBase
        {
          OFFSET 12.7242 0 0
          CHANNELS 3 Zrotation Xrotation Yrotation
          End Site
          {
            OFFSET 0 0 0
          }
        }
      }
    }
  }
  JOINT Spine
  {
    OFFSET 0.165834 0.87714 6.61349
    CHANNELS 3 Zrotation Xrotation Yrotation
    JOINT Spine1
    {
      OFFSET 7.38963 1.71661e-005 0
      CHANNELS 3 Zrotation Xrotation Yrotation
      JOINT Spine2
      {
        OFFSET 11.9445 1.14441e-005 0
        CHANNELS 3 Zrotation Xrotation Yrotation
        JOINT Spine3
        {
          OFFSET 14.7254 4.19617e-005 0
          CHANNELS 3 Zrotation Xrotation Yrotation
          JOINT Spine4
          {
            OFFSET 10.9679 0 0
            CHANNELS 3 Zrotation Xrotation Yrotation
            JOINT RightShoulder
            {
              OFFSET 2.46616 -1.6653 3.69651
              CHANNELS 3 Zrotation Xrotation Yrotation
              JOINT RightArm
              {
                OFFSET 13.0012 0 0
                CHANNELS 3 Zrotation Xrotation Yrotation
                JOINT RightForeArm
                {
                  OFFSET 28.7848 1.52588e-005 0
                  CHANNELS 3 Zrotation Xrotation Yrotation
                  JOINT RightHand
                  {
                    OFFSET 26.5688 1.52588e-005 0
                    CHANNELS 3 Zrotation Xrotation Yrotation
                    End Site
                    {
                      OFFSET 0 0 0
                    }
                  }
                }
              }
            }
            JOINT LeftShoulder
            {
              OFFSET 2.38034 -1.29275 -3.7523
              CHANNELS 3 Zrotation Xrotation Yrotation
              JOINT LeftArm
              {
                OFFSET 16.3182 6.10351e-005 0
                CHANNELS 3 Zrotation Xrotation Yrotation
                JOINT LeftForeArm
                {
                  OFFSET 27.0901 0 0
                  CHANNELS 3 Zrotation Xrotation Yrotation
                  JOINT LeftHand
                  {
                    OFFSET 24.5451 1.52588e-005 0
                    CHANNELS 3 Zrotation Xrotation Yrotation
                    End Site
                    {
                      OFFSET 0 0 0
                    }
                  }
                }
              }
            }
            JOINT Neck
            {
              OFFSET 5.0226 -0.0266342 0
              CHANNELS 3 Zrotation Xrotation Yrotation
              JOINT Head
              {
                OFFSET 6.69363 2.86102e-005 0
                CHANNELS 3 Zrotation Xrotation Yrotation
                End Site
                {
                  OFFSET 0 0 0
                }
              }
            }
          }
        }
      }
    }
  }
}
MOTION
Frames:	9
Frame Time:	0.0416667
-300.512 77.1465 -305.935 71.5147 -28.0686 95.8208 22.8625 43.3804 44.3461 83.7455 52.7289 154.722 84.5204 14.4657 104.187 50.5928 -17.3106 169.357 157.27 77.0412 116.243 -78.0968 13.8951 5.00602 24.8679 7.82491 10.3605 110.004 8.07723 4.53346 7.15609 5.27532 -90.5979 16.6887 13.8069 -3.56612 5.08594 13.6364 -4.18074 -18.0534 14.2273 0.834257 1.95923 14.2274 0.834274 89.9349 35.8198 26.7082 54.6297 -46.7788 -81.1898 -112.335 -3.78351 179.978 38.1252 16.2257 51.0469 -140.892 -44.7611 7.71807 -53.9963 44.5292 96.2222 159.065 -4.22367 -62.6569 30.316 3.8825 9.12005 52.244 6.36436 71.8586 82.9125 -6.47756 25.0744 
-300.87 76.9592 -306.268 71.5794 -28.1958 95.8776 23.9 43.6183 43.4607 84.5838 52.3872 153.947 85.4436 13.6093 104.367 51.748 -18.8686 169.895 157.195 77.3308 116.747 -78.1989 12.6426 4.53042 25.9295 7.93809 10.2903 109.859 6.90158 2.99772 7.239 5.20272 -90.6239 16.8482 13.9513 -3.67359 5.24669 13.776 -4.29476 -17.9058 14.397 0.778005 2.10686 14.397 0.778009 86.7677 37.6212 27.1109 56.8754 -47.2438 -77.8757 -112.324 -4.13191 179.978 37.8715 16.5813 52.2314 -141.588 -44.702 6.90025 -54.3148 44.3678 96.8685 160.024 -3.55344 -63.6824 29.3253 4.19098 10.6351 50.6809 5.85584 72.2048 83.6333 -5.50173 25.5572 
-301.908 76.3997 -307.234 71.7702 -28.5648 96.0403 27.0392 44.0025 40.761 87.2836 51.3535 151.352 88.1562 11.3374 104.954 55.0117 -23.0496 171.498 157.114 78.0376 118.022 -78.6675 8.74744 3.25849 30.0386 8.11324 9.70178 108.442 3.35407 -1.59442 7.46675 4.9944 -90.7009 17.3068 14.3432 -3.98693 5.70856 14.1538 -4.6258 -17.4801 14.8638 0.605004 2.53255 14.8638 0.605003 77.684 42.5064 28.3846 63.4979 -48.0416 -68.1999 -112.228 -5.3485 179.978 37.4481 17.6591 55.4477 -143.554 -44.5597 4.63178 -55.2647 43.8524 98.6977 162.641 -1.93282 -66.6315 26.4234 4.89033 14.8599 44.4025 4.9407 72.8949 85.6716 -2.51479 28.947 
-303.579 75.4516 -308.786 72.0859 -29.1589 96.298 32.497 43.4759 36.0416 92.5829 49.4526 145.868 92.6821 8.42055 106.062 59.6803 -28.4861 173.956 158.543 78.4272 118.375 -79.7275 1.93894 1.53861 41.1418 7.02795 6.82748 102.128 -2.46903 -9.96729 7.79683 4.6645 -90.8319 18.0352 14.895 -4.49993 6.44141 14.6825 -5.16362 -16.7995 15.5425 0.293647 3.21315 15.5424 0.293639 63.4137 49.4277 30.6955 73.8033 -47.7388 -53.1542 -111.899 -7.86343 179.978 37.5864 19.6342 60.067 -146.597 -44.4152 1.24809 -56.7668 42.8777 101.443 166.36 -0.170885 -71.2604 21.8146 5.47325 21.1741 33.3806 3.83244 73.1381 88.0443 2.82538 35.7413 
-305.858 74.0953 -310.901 72.5303 -29.9649 96.6416 40.5357 39.769 29.2837 101.846 45.8846 135.249 99.2835 6.12427 107.609 63.3161 -32.4736 175.714 167.776 75.5997 111.095 -78.4919 -6.46842 -0.147355 66.6186 -0.944895 -0.30231 82.7343 -7.30527 -23.4128 8.17954 4.22773 -91.0279 19.0033 15.499 -5.21762 7.41366 15.2545 -5.90818 -15.8853 16.3321 -0.195195 4.12731 16.3321 -0.195192 44.971 57.3006 34.2098 85.3813 -44.9219 -35.5482 -111.256 -12.1508 179.977 38.7504 22.8346 65.5992 -150.544 -44.3507 -2.92743 -58.5552 41.2874 104.656 170.5 0.977825 -77.1435 16.0552 5.43926 28.7866 19.7486 2.49536 72.2015 89.3138 10.5756 44.3537 
-308.746 72.1003 -313.508 73.1099 -30.9706 97.0636 51.2275 28.3022 21.3477 116.875 37.8696 115.888 108.944 6.48474 108.135 58.91 -28.898 171.422 179.994 67.8092 99.7836 -66.9161 -14.4474 -1.45575 99.384 -14.5655 -3.90243 51.9145 -3.86444 -35.083 8.56722 3.69994 -91.3045 20.1762 16.0488 -6.1529 8.58876 15.7627 -6.86722 -14.7613 17.1355 -0.908758 5.2514 17.1355 -0.908757 23.3567 65.3799 39.3108 95.0785 -39.4164 -18.976 -110.31 -18.5625 179.977 40.3352 27.3196 72.0303 -155.255 -44.3988 -7.6447 -60.1848 38.9515 107.743 174.446 1.122 -83.7149 9.95612 4.56311 36.8758 4.84365 1.47952 69.7934 88.2241 20.1326 54.3932 
-312.021 68.216 -316.091 73.8321 -32.1623 97.5564 66.3625 -2.98068 12.5507 128.277 18.0213 85.0082 127.047 16.4761 110.491 38.9533 -1.01879 154.952 -174.35 65.5756 94.151 -58.2027 -21.9372 -2.70062 119.655 -20.7791 -2.16391 32.4838 1.4565 -39.9075 8.92092 3.09997 -91.6793 21.5089 16.454 -7.31716 9.91984 16.1167 -8.04761 -13.4595 17.8701 -1.88896 6.55313 17.8701 -1.88895 -1.92115 73.2964 47.7679 101.459 -32.3027 -5.25629 -109.065 -27.0256 179.975 40.2832 32.203 79.828 -160.555 -44.515 -12.6892 -61.1759 35.841 110.092 177.805 -0.0915686 -90.3693 4.25335 2.93971 44.7539 -10.8917 1.62181 66.1578 83.4207 30.3507 66.9107 
-317.026 61.513 -319.859 74.7009 -33.5214 98.1093 144.499 7.4211 50.9027 -177.97 42.2888 63.2567 86.2068 -25.6062 48.7727 23.2667 68.3509 121.861 -168.745 72.0819 88.3899 -60.7347 -25.8389 -4.09672 128.268 -22.0169 -1.03666 26.0568 3.72743 -42.5166 9.21195 2.45538 -92.1651 22.9376 16.6493 -8.70335 11.3415 16.2515 -9.43899 -12.0316 18.4717 -3.1527 7.98109 18.4717 -3.15269 -38.6547 80.485 68.2512 104.824 -24.7759 5.70899 -107.516 -36.6757 179.972 36.6914 35.557 88.9442 -166.109 -44.5972 -17.7728 -61.2135 32.041 111.224 -179.562 -2.08072 -96.8278 -0.61885 0.848241 51.9644 -27.2191 3.57657 61.9697 73.2357 39.4192 83.653 
-324.292 51.688 -325.863 75.6991 -35.0184 98.6963 178.971 -12.2981 54.1521 -153.185 10.4351 57.9269 110.613 -39.3579 43.0928 144.863 64.3748 -30.0481 -143.196 81.9038 61.8597 -64.9964 -26.2968 -5.2897 128.96 -18.7288 -1.71758 24.7852 4.33141 -44.1003 9.42265 1.80735 -92.7542 24.3699 16.6064 -10.2628 12.7605 16.1412 -10.9913 -10.5611 18.8987 -4.66495 9.45155 18.8987 -4.66495 -113.809 83.2887 128.235 105.936 -17.5704 14.6541 -105.783 -46.4176 179.968 30.5384 36.1228 97.7073 -171.382 -44.575 -22.4607 -60.3299 27.7119 110.919 -177.612 -5.10725 -102.796 -4.53305 -1.40609 58.3001 -43.8198 7.56226 58.0774 56.7814 44.7321 105.614 
